<svg width="43" height="29" viewBox="0 0 43 29" fill="none" xmlns="http://www.w3.org/2000/svg">
<path d="M42.2482 3.47854C42.2482 5.39968 32.7906 6.95708 21.1241 6.95708C9.45758 6.95708 0 5.39968 0 3.47854C0 1.55739 9.45758 0 21.1241 0C32.7906 0 42.2482 1.55739 42.2482 3.47854Z" fill="#414141"/>
<path d="M42.2482 25.328C42.2482 27.2492 32.7906 28.8065 21.1241 28.8065C9.45758 28.8065 0 27.2492 0 25.328C0 23.4069 9.45758 21.8495 21.1241 21.8495C32.7906 21.8495 42.2482 23.4069 42.2482 25.328Z" fill="#414141"/>
<path d="M42.2482 14.4031C42.2482 16.3242 32.7906 17.8816 21.1241 17.8816C9.45758 17.8816 0 16.3242 0 14.4031C0 12.4819 9.45758 10.9245 21.1241 10.9245C32.7906 10.9245 42.2482 12.4819 42.2482 14.4031Z" fill="#414141"/>
</svg>
