<svg xmlns="http://www.w3.org/2000/svg" xmlns:xlink="http://www.w3.org/1999/xlink" viewBox="0 0 555 655.67"><defs><style>.cls-1{fill:none;stroke:#231f20;stroke-miterlimit:10;stroke-width:5px;}.cls-2{clip-path:url(#clip-path);}.cls-3{fill:#231f20;}</style><clipPath id="clip-path"><path class="cls-1" d="M362.35,234.46c-25.15,0-50.83,2.54-71.07,10.91V641.71c25.41,2,38.25,10,63.4,10,104,0,213.16-152.44,196-268.11C534.26,272.49,466.38,234.46,362.35,234.46Z"/></clipPath></defs><g id="Layer_2" data-name="Layer 2"><g id="Layer_1-2" data-name="Layer 1"><g class="cls-2"><path class="cls-3" d="M431.78,263.21a29,29,0,0,1,19.11,12.59A35.89,35.89,0,0,1,455.66,286c1.37,4.77,1.58,9.76,2.26,14.66a43.19,43.19,0,0,0,4.32,14,56.9,56.9,0,0,0,7.9,11.34c6.36,7.31,14,13.29,21.63,19.25,8.57,6.72,17.46,13.57,23.93,22.44a2.57,2.57,0,0,0,3.42.9,2.51,2.51,0,0,0,.9-3.42c-11.91-16.33-30.4-25.75-44.13-40.26a58.27,58.27,0,0,1-8.4-11.05A38,38,0,0,1,463,300.71c-.81-5.08-.94-10.27-2.25-15.26a40.46,40.46,0,0,0-4.74-11c-5.1-8.19-13.23-14.4-22.85-16a2.57,2.57,0,0,0-3.08,1.75,2.52,2.52,0,0,0,1.75,3.07Z"/><path class="cls-3" d="M457.56,375.93a42.09,42.09,0,0,1,4.86-9.89,18.46,18.46,0,0,1,9.13-6.43c7.91-2.81,16.28-4.85,24.72-4.23,3.62.27,7.67.81,10.82,2.59,2.8,1.59,5.32-2.73,2.52-4.32-3.42-1.94-7.44-2.63-11.3-3.07a48,48,0,0,0-12.56.21,85.67,85.67,0,0,0-14.69,3.71c-4.45,1.49-8.61,3.63-11.65,7.31s-5,8.26-6.67,12.79a2.51,2.51,0,0,0,1.75,3.07,2.55,2.55,0,0,0,3.07-1.74Z"/><path class="cls-3" d="M446.49,352.65a46.34,46.34,0,0,0,15.8,10.51,2.51,2.51,0,0,0,3.08-1.75,2.57,2.57,0,0,0-1.75-3.07c-.1,0-.35-.15-.1,0l-.59-.25-.92-.42c-.68-.33-1.36-.67-2-1q-1.94-1-3.75-2.25c-.58-.39-1.15-.8-1.71-1.21l-.24-.18-.32-.26c-.26-.2-.51-.41-.76-.62a38.93,38.93,0,0,1-3.19-3,2.52,2.52,0,0,0-3.53,0,2.55,2.55,0,0,0,0,3.54Z"/><path class="cls-3" d="M382.09,277.48c3.33-6.56,5.89-14,4.69-21.43a18.07,18.07,0,0,0-4.79-9.52c-2.81-2.88-6.68-3.73-10.39-4.91a51.71,51.71,0,0,1-12.17-5.74c-2.72-1.74-5.23,2.58-2.53,4.32a57.22,57.22,0,0,0,12.72,6,52.17,52.17,0,0,1,6.37,2.1,9.71,9.71,0,0,1,4.09,3.89c4.28,7,1.1,16-2.31,22.73-1.45,2.87,2.86,5.4,4.32,2.53Z"/><path class="cls-3" d="M365.61,286.17c6.25-3.13,12.47-6.35,18.79-9.37,5.15-2.47,10.93-4.66,16.74-3.7a12.48,12.48,0,0,1,6.51,2.85,8.43,8.43,0,0,1,2.46,6.57c-.13,6.07-3.45,12-6.28,17.24-3.79,6.94-7.7,13.81-11.55,20.71-1.57,2.82,2.75,5.34,4.32,2.53,3.7-6.64,7.44-13.26,11.1-19.91,3.35-6.08,6.88-12.72,7.37-19.77a13.85,13.85,0,0,0-2.76-9.66,15,15,0,0,0-7-4.66c-6.31-2.17-13.15-.88-19.16,1.58-3.77,1.54-7.4,3.44-11,5.26l-12,6c-2.88,1.44-.35,5.76,2.53,4.32Z"/><path class="cls-3" d="M311,330.5c-1.23,12.82-2.67,25.63-3.66,38.47-.48,6.23-.54,12.6,1.06,18.69a41.83,41.83,0,0,0,7.46,14.55A129.52,129.52,0,0,0,329,416.41c2.31,2.24,5.85-1.3,3.53-3.54-7.46-7.21-15.84-15-19-25.19-1.74-5.61-1.76-11.51-1.37-17.31.41-6.19,1.12-12.36,1.71-18.54L316,330.5a2.52,2.52,0,0,0-2.5-2.5,2.55,2.55,0,0,0-2.5,2.5Z"/><path class="cls-3" d="M329.82,410.68c-.85-2.19-3.71-2.66-5.73-3.24-2.64-.74-5.32-1.4-8-1.94A18.11,18.11,0,0,0,313,405a4.94,4.94,0,0,0-2.77.92,42,42,0,0,0-3.88,2.76,6.82,6.82,0,0,0-2.52,2.86,22.43,22.43,0,0,0-1.06,7.1,12.78,12.78,0,0,1-1.71,6.37c-1.64,2.77,2.68,5.29,4.32,2.52a15.76,15.76,0,0,0,2.14-6c.24-1.75.21-3.5.36-5.26a13.46,13.46,0,0,1,.46-2.44c.05-.2.09-.57.13-.53s-.15-.06,0,0c.34.09-.51.47-.15.22a2.62,2.62,0,0,0,.3-.28,19.25,19.25,0,0,1,2.66-2.06c.49-.34,1-.67,1.47-1s1.42-.71.18-.29c-.47.16,0,.07.27.08-.4,0-.49-.08-.08,0l.71.13c2.35.43,4.67,1,7,1.59,1.23.32,2.46.66,3.67,1,.47.15.92.35,1.39.48s-.52-.3-.08,0l.15.08A4,4,0,0,1,325,412a2.57,2.57,0,0,0,3.08,1.74,2.52,2.52,0,0,0,1.75-3.07Z"/><path class="cls-3" d="M354,350.83c.17-2.41,2.7-4.25,4.83-5.06,3.3-1.25,7-.87,10.31,0,3.71,1,7.09,2.86,10.79,3.87a19.45,19.45,0,0,0,10.16,0,17,17,0,0,0,9.1-5.77,2.58,2.58,0,0,0,0-3.53,2.52,2.52,0,0,0-3.54,0,12.91,12.91,0,0,1-7.43,4.62c-3.44.8-6.7.08-9.94-1.17-3.79-1.46-7.42-3-11.48-3.59a19,19,0,0,0-11.44,1.64,11.13,11.13,0,0,0-6.36,8.95,2.5,2.5,0,0,0,5,0Z"/><path class="cls-3" d="M368.21,482c-3.07-8.69.46-17.48,5-24.94,4.9-8,11.35-14.88,16.36-22.79,4.83-7.62,8.25-16.3,6.72-25.44-.83-4.91-3-9.48-5-14a122.64,122.64,0,0,1-5.15-14.15c-3.26-10.92-5.23-22.17-7.18-33.39a2.51,2.51,0,0,0-3.07-1.74,2.55,2.55,0,0,0-1.75,3.07c1.74,10,3.49,20,6.15,29.78A132.57,132.57,0,0,0,385,392.7c1.83,4.6,4.15,9,5.59,13.79a23.72,23.72,0,0,1,.41,12.7,41.19,41.19,0,0,1-5.19,11.68c-4.93,8-11.43,14.95-16.45,22.93-5.47,8.7-9.6,19.33-6,29.55a2.56,2.56,0,0,0,3.08,1.74,2.52,2.52,0,0,0,1.74-3.07Z"/><path class="cls-3" d="M458.36,414.23c-2.28-5.11-4.74-10.26-8.77-14.26a26.16,26.16,0,0,0-14.43-7.07c-11.41-1.78-22.61,2-31.33,9.41A59.42,59.42,0,0,0,392,416.44c-1.7,2.74,2.62,5.25,4.32,2.52,5.19-8.35,12.39-16.09,21.84-19.52,8.46-3.05,19.52-3.18,26.7,3,4.41,3.78,6.85,9.14,9.17,14.34a2.52,2.52,0,0,0,3.42.9,2.56,2.56,0,0,0,.9-3.42Z"/><path class="cls-3" d="M316.09,525.09c12.34,10.81,29.43,15.7,45.67,14.63a64.08,64.08,0,0,0,23.17-6,84.47,84.47,0,0,0,18-11.85c11-9.2,20.25-20.31,30.82-30a95.63,95.63,0,0,1,16.75-12.6,66.73,66.73,0,0,1,22.69-7.89c18.91-3.07,38.22.08,57.2-2.3,2.43-.31,4.86-.68,7.26-1.16a2.53,2.53,0,0,0,1.75-3.08,2.56,2.56,0,0,0-3.08-1.75c-18.7,3.74-37.9.81-56.78,2.51A78.85,78.85,0,0,0,454,471.85a82.86,82.86,0,0,0-18.1,11.54c-11,8.95-20.1,19.84-30.39,29.51S383.25,531,369.06,533.77c-15.27,3-32.17,0-45.09-8.84a47.2,47.2,0,0,1-4.35-3.37,2.55,2.55,0,0,0-3.53,0,2.51,2.51,0,0,0,0,3.53Z"/><path class="cls-3" d="M474.32,495.61a46.9,46.9,0,0,1,11.51-15.52,52.16,52.16,0,0,1,8.19-6c1.49-.88,3-1.68,4.59-2.44.09,0,.69-.26.16-.08s-.14,0-.09,0a1.78,1.78,0,0,0,.45-.13c.48-.14,1-.25,1.46-.37,1.91-.44,3.82-.83,5.74-1.19a2.5,2.5,0,1,0-1.33-4.82q-2.56.48-5.12,1.05a26.48,26.48,0,0,0-7.35,3,55.46,55.46,0,0,0-16.37,13.88,48.92,48.92,0,0,0-6.16,10,2.57,2.57,0,0,0,.9,3.42,2.53,2.53,0,0,0,3.42-.9Z"/><path class="cls-3" d="M361.44,576.16a57.05,57.05,0,0,0,15.68-7.55c4.58-3.18,9.23-7.18,12.2-12a9.5,9.5,0,0,0,1.1-8.37,13.74,13.74,0,0,0-5.56-6.58c-3-1.91-6.83-2.78-10.19-3.73-3.9-1.12-7.84-2.15-11.82-3-3.13-.68-4.47,4.14-1.32,4.82a121.32,121.32,0,0,1,19.36,5.47c.62.25-.31-.15,0,0l.41.18.54.29a9.91,9.91,0,0,1,2.61,2.17A4.79,4.79,0,0,1,385.6,553c-1,2.19-2.89,4.1-4.54,5.79a44.41,44.41,0,0,1-5.49,4.76,52.44,52.44,0,0,1-15.46,7.75c-3.06,1-1.75,5.78,1.33,4.82Z"/><path class="cls-3" d="M391.08,653.26c.66-10.61,4.3-21.29,9.25-30.65,5.63-10.66,14.18-19.49,22.46-28.14,4.41-4.6,8.9-9.13,13.17-13.87,4-4.44,7.87-9.17,10.56-14.54a30.4,30.4,0,0,0,3.33-17.17c-.73-6.28-3.18-12.12-6-17.7-5.83-11.49-15.58-24.86-10.34-38.32a2.53,2.53,0,0,0-1.74-3.08,2.56,2.56,0,0,0-3.08,1.75c-4.79,12.3,1.63,25.12,7.46,35.82,2.94,5.39,6,10.83,7.68,16.76a26,26,0,0,1-.4,16.67c-2,5.34-5.57,10.06-9.27,14.33-4.18,4.84-8.7,9.38-13.13,14C412.5,598,403.49,607,397.33,617.68s-10.48,23.19-11.25,35.58c-.2,3.22,4.8,3.21,5,0Z"/><path class="cls-3" d="M464.77,542.46a30.93,30.93,0,0,0-13.44,7.35,20.12,20.12,0,0,0-4.1,5.25c-.48.93-.92,1.88-1.46,2.78-.13.22-.26.44-.41.65,0,0-.4.54-.24.34s-.29.3-.35.36-.16.15-.24.23c.22-.18.21-.18,0,0-2.75,1.68-.24,6,2.52,4.32,1.87-1.14,3-3.08,3.94-5a17.42,17.42,0,0,1,3.26-4.76,25.65,25.65,0,0,1,11.87-6.69c3.11-.81,1.79-5.63-1.33-4.82Z"/><path class="cls-3" d="M434.56,448.81A123.17,123.17,0,0,0,478,433.65a100.41,100.41,0,0,0,18.34-13.4c5.14-4.85,10.15-11.58,9-19.07-1.15-7.27-8.15-13.21-15.58-12.56a2.56,2.56,0,0,0-2.5,2.5,2.52,2.52,0,0,0,2.5,2.5,10.16,10.16,0,0,1,10.71,8.58c.89,5.89-4.34,11.53-8.41,15.22-10.09,9.17-22.51,16-35.29,20.64A123.17,123.17,0,0,1,433.23,444a2.53,2.53,0,0,0-1.74,3.08,2.56,2.56,0,0,0,3.07,1.75Z"/><path class="cls-3" d="M530.82,431.82c2.68-3.37,5.56-7,5.63-11.53s-2.76-7.87-6.87-9.35A32.79,32.79,0,0,0,518,409.42,57,57,0,0,0,506.17,411a44.63,44.63,0,0,0-12,4.58c-2.79,1.6-.28,5.93,2.52,4.32a44.09,44.09,0,0,1,18.09-5.26,38.64,38.64,0,0,1,9.49.18c2.61.42,6.19,1,7,4,1,3.56-1.92,7-4,9.55a2.58,2.58,0,0,0,0,3.54,2.53,2.53,0,0,0,3.54,0Z"/><path class="cls-3" d="M322.69,575.44a52.81,52.81,0,0,1,5.65,24.2,51,51,0,0,1-1.55,12.11,37.24,37.24,0,0,1-4.62,11.46c-2.24,3.41-5.91,6.64-4.9,11.19.7,3.13,5.52,1.81,4.82-1.33.08.36,0-.41,0-.42a6.45,6.45,0,0,1,.29-.93,11,11,0,0,1,1.24-2.25c1.07-1.6,2.43-3,3.42-4.63a44.31,44.31,0,0,0,4.61-12,57.71,57.71,0,0,0,.39-25.85,59.1,59.1,0,0,0-5-14.11c-1.45-2.87-5.76-.34-4.32,2.53Z"/><path class="cls-3" d="M364.18,596.07c-7.19.87-14.76,1.63-21.57,4.25-6.14,2.35-11.05,6.86-15.19,11.86a2.57,2.57,0,0,0,0,3.54,2.52,2.52,0,0,0,3.53,0c3.62-4.38,7.93-8.74,13.38-10.73,6.32-2.3,13.2-3.11,19.85-3.92a2.57,2.57,0,0,0,2.5-2.5,2.52,2.52,0,0,0-2.5-2.5Z"/><path class="cls-3" d="M328.52,449.28a25,25,0,0,0-15.2,5.73,28.93,28.93,0,0,0-9,14c-1.7,5.41-1.79,11.12-3.07,16.62a20,20,0,0,1-2.82,6.94c.36-.52-.27.32-.39.45s-.49.53-.75.79c-.69.71-1.42,1.39-2.15,2.06-3.12,2.84-6.5,5.38-9.61,8.23-2.38,2.18,1.17,5.71,3.54,3.54,2.64-2.43,5.5-4.62,8.2-7a54.56,54.56,0,0,0,4-3.76,17.77,17.77,0,0,0,3.4-5.5c2.11-5.1,2.29-10.65,3.26-16,.92-5.14,2.7-10.29,6.21-14.26a20,20,0,0,1,14.4-6.87c3.22-.06,3.23-5.06,0-5Z"/><path class="cls-3" d="M495.55,266.8a13.39,13.39,0,0,1-.95,6.59,61.64,61.64,0,0,1-3.23,7.43c-2.51,5.19-5.36,10.5-5.95,16.32a13.2,13.2,0,0,0,7.72,13.41c6.28,2.91,13.48,2.77,20.12,3.82a73.28,73.28,0,0,1,13,3.37,41.78,41.78,0,0,1,12,6.32,2.59,2.59,0,0,0,3.54,0,2.54,2.54,0,0,0,0-3.54c-6.65-5.22-14.6-8.13-22.75-10.06-6.59-1.55-13.43-1.48-20-3.12-2.79-.7-5.16-1.67-7-3.76a7.83,7.83,0,0,1-1.32-2.38,6.71,6.71,0,0,1-.38-2.84c0-.28,0-.57.05-.85,0-.11.09-.85,0-.45.09-.64.23-1.28.38-1.9a31.56,31.56,0,0,1,1.22-3.79c.93-2.43,2.2-5,3.41-7.49,2.49-5.13,5.84-11.16,5.12-17.08a2.59,2.59,0,0,0-2.5-2.5,2.51,2.51,0,0,0-2.5,2.5Z"/><path class="cls-3" d="M290.43,263.3a53,53,0,0,1,12.95,2.85,13.48,13.48,0,0,1,8.15,8,135.18,135.18,0,0,0,6.4,15.09c1.3,2.52,2.67,5,4,7.5a29.45,29.45,0,0,0,3.67,5.5,13.41,13.41,0,0,0,6.68,4.08c2,.53,4.83.52,6.5,1.91a2.56,2.56,0,0,0,3.54,0,2.51,2.51,0,0,0,0-3.53,14,14,0,0,0-6.53-2.72c-2.1-.42-4.14-.85-5.76-2.36a20,20,0,0,1-3.7-5.25c-1.4-2.53-2.79-5.08-4.12-7.65s-2.48-4.94-3.54-7.49-1.79-5.08-2.82-7.57a17.79,17.79,0,0,0-9.58-9.7c-5-2.23-10.47-3-15.88-3.7a2.51,2.51,0,0,0-2.5,2.5,2.57,2.57,0,0,0,2.5,2.5Z"/></g><path class="cls-1" d="M362.35,234.46c-25.15,0-50.83,2.54-71.07,10.91V641.71c25.41,2,38.25,10,63.4,10,104,0,213.16-152.44,196-268.11C534.26,272.49,466.38,234.46,362.35,234.46Z"/><path class="cls-1" d="M195.67,233.69c-105.44,0-172.92,43-190.92,149.73C-14.77,499.13,96.38,652.5,201.82,652.5c25.49,0,44.45-11.44,65.89-10.08V244.65C236.9,238.92,221.16,233.69,195.67,233.69Z"/><path class="cls-1" d="M430.86,217c24.13-24.24,29.28-52.1,29.28-88.87C460.14,49.21,408,2.5,269.52,2.5S80.45,47.82,80.45,126.77c0,38.05,7.32,66.14,37,91"/><path class="cls-1" d="M174,125c8.72-31.37,39.07-48.06,102.7-48.06,77.24,0,106.32,27,106.32,72.58,0,25.26-7.52,47-27.35,61.43"/><polygon class="cls-1" points="218.02 207.34 209.16 210.91 158.53 154.41 179.98 140.19 218.02 207.34"/></g></g></svg>